#N canvas 173 153 1280 643 10;
#X obj 219 400 *~;
#X floatatom 192 344 5 0 0 0 - - -, f 5;
#X floatatom 515 255 5 0 0 0 - - -, f 5;
#X obj 132 240 vd~ buff1;
#X obj 113 333 *~;
#X floatatom 156 300 5 0 0 0 - - -, f 5;
#X text 191 298 no higher than 1!;
#X obj 242 151 loadbang;
#X obj 987 6 r breathData;
#X floatatom 987 32 5 0 0 0 - - -, f 5;
#X obj 1005 223 sel 1;
#X obj 1005 192 change;
#X obj 160 -41 adc~;
#X obj 176 2 env~;
#X floatatom 175 31 5 0 0 0 - - -, f 5;
#X obj 1007 327 timer;
#X obj 1006 294 trigger bang bang;
#X floatatom 956 328 5 0 0 0 - - -, f 5;
#N canvas 69 22 1223 643 accelerator 0;
#X obj 108 226 noise~;
#X obj 107 476 *~;
#X obj 139 459 line~;
#X obj 141 406 sel 0 1;
#X obj 137 361 f;
#X obj 171 361 + 1;
#X obj 141 384 mod 2;
#X msg 138 433 1 50;
#X msg 184 433 0 450;
#X obj 452 29 f;
#X obj 486 29 + 1;
#X obj 456 52 mod 8;
#X obj 456 74 sel 0 1 2 3 4 5 6 7;
#X msg 451 -23 bang;
#X obj 235 472 *~;
#X obj 267 455 line~;
#X obj 269 402 sel 0 1;
#X obj 265 357 f;
#X obj 299 357 + 1;
#X obj 269 380 mod 2;
#X msg 266 429 1 50;
#X obj 451 1 metro 200;
#X obj 254 142 sel 0 1;
#X msg 260 52 bang;
#X obj 257 97 f;
#X obj 291 97 + 1;
#X obj 261 120 mod 2;
#X obj 383 142 sel 0 1;
#X msg 389 52 bang;
#X obj 386 97 f;
#X obj 420 97 + 1;
#X obj 390 120 mod 2;
#X obj 362 468 *~;
#X obj 394 451 line~;
#X obj 396 398 sel 0 1;
#X obj 392 353 f;
#X obj 426 353 + 1;
#X obj 396 376 mod 2;
#X msg 393 425 1 50;
#X msg 439 425 0 450;
#X msg 250 175 0;
#X obj 356 -40 loadbang;
#X obj 138 149 sel 0 1;
#X msg 144 59 bang;
#X obj 141 104 f;
#X obj 175 104 + 1;
#X obj 145 127 mod 2;
#X msg 134 182 0;
#X obj 512 471 *~;
#X obj 544 454 line~;
#X obj 546 401 sel 0 1;
#X obj 542 356 f;
#X obj 576 356 + 1;
#X obj 546 379 mod 2;
#X msg 543 428 1 50;
#X msg 589 428 0 450;
#X obj 174 -32 r metroperc;
#X obj 593 144 sel 0 1;
#X msg 599 54 bang;
#X obj 596 99 f;
#X obj 630 99 + 1;
#X obj 600 122 mod 2;
#X obj 762 482 line~;
#X obj 762 458 pack 0 100;
#X obj 866 612 line~;
#X obj 866 588 pack 0 100;
#X obj 866 564 * 0.01;
#X obj 845 638 *~;
#X obj 687 500 *~;
#X obj 687 428 / 100;
#X obj 687 476 +~ 1;
#X obj 687 524 +~ 1.46;
#X obj 845 686 delwrite~ percus 1000;
#X obj 389 565 +~;
#X obj 866 515 r percfeedback;
#X obj 687 365 r percfrequency;
#X obj 763 397 r percsec;
#X obj 764 214 s metroperc;
#X floatatom 764 188 5 0 0 0 - - -, f 5;
#X obj 971 129 s percfrequency;
#X floatatom 971 106 5 0 0 0 - - -, f 5;
#X obj 1072 128 s percsec;
#X floatatom 1072 105 5 0 0 0 - - -, f 5;
#X obj 1144 130 s percfeedback;
#X floatatom 1144 106 5 0 0 0 - - -, f 5;
#X floatatom 759 103 5 0.5 3 0 - - -, f 5;
#X obj 780 6 unpack f f f;
#X obj 780 -22 r #accelerate;
#X obj 757 54 r #pace;
#X obj 759 80 unpack f;
#X obj 369 674 outlet~;
#X obj 144 81 metro 500;
#X obj 260 74 metro 500;
#X obj 389 74 metro 500;
#X obj 599 76 metro 500;
#X msg 379 175 40;
#X msg 589 177 40;
#X obj 761 126 * 50;
#X msg 312 429 0 50;
#X msg 285 175 4808;
#X msg 169 182 8000;
#X obj 107 304 bp~ 0 50;
#X obj 235 304 bp~ 0 50;
#X obj 363 302 bp~ 0 50;
#X obj 541 303 bp~ 0 100;
#X obj 687 452 osc~ 0;
#X obj 389 530 *~ 0.1;
#X obj 687 548 vd~ percus 1000;
#X obj 761 158 + 100;
#X msg 414 175 100;
#X msg 624 177 100;
#X connect 0 0 101 0;
#X connect 0 0 102 0;
#X connect 0 0 103 0;
#X connect 0 0 104 0;
#X connect 1 0 106 0;
#X connect 2 0 1 1;
#X connect 3 0 7 0;
#X connect 3 1 8 0;
#X connect 4 0 5 0;
#X connect 4 0 6 0;
#X connect 5 0 4 1;
#X connect 6 0 3 0;
#X connect 7 0 2 0;
#X connect 8 0 2 0;
#X connect 9 0 10 0;
#X connect 9 0 11 0;
#X connect 10 0 9 1;
#X connect 11 0 12 0;
#X connect 12 0 4 0;
#X connect 12 1 17 0;
#X connect 12 2 35 0;
#X connect 12 3 51 0;
#X connect 13 0 21 0;
#X connect 14 0 106 0;
#X connect 15 0 14 1;
#X connect 16 0 20 0;
#X connect 16 1 98 0;
#X connect 17 0 18 0;
#X connect 17 0 19 0;
#X connect 18 0 17 1;
#X connect 19 0 16 0;
#X connect 20 0 15 0;
#X connect 21 0 9 0;
#X connect 22 0 40 0;
#X connect 22 1 99 0;
#X connect 23 0 92 0;
#X connect 24 0 25 0;
#X connect 24 0 26 0;
#X connect 25 0 24 1;
#X connect 26 0 22 0;
#X connect 27 0 95 0;
#X connect 27 1 109 0;
#X connect 28 0 93 0;
#X connect 29 0 30 0;
#X connect 29 0 31 0;
#X connect 30 0 29 1;
#X connect 31 0 27 0;
#X connect 32 0 106 0;
#X connect 33 0 32 1;
#X connect 34 0 38 0;
#X connect 34 1 39 0;
#X connect 35 0 36 0;
#X connect 35 0 37 0;
#X connect 36 0 35 1;
#X connect 37 0 34 0;
#X connect 38 0 33 0;
#X connect 39 0 33 0;
#X connect 40 0 102 1;
#X connect 41 0 23 0;
#X connect 41 0 28 0;
#X connect 41 0 13 0;
#X connect 41 0 43 0;
#X connect 41 0 58 0;
#X connect 42 0 47 0;
#X connect 42 1 100 0;
#X connect 43 0 91 0;
#X connect 44 0 45 0;
#X connect 44 0 46 0;
#X connect 45 0 44 1;
#X connect 46 0 42 0;
#X connect 47 0 101 1;
#X connect 48 0 106 0;
#X connect 49 0 48 1;
#X connect 50 0 54 0;
#X connect 50 1 55 0;
#X connect 51 0 52 0;
#X connect 51 0 53 0;
#X connect 52 0 51 1;
#X connect 53 0 50 0;
#X connect 54 0 49 0;
#X connect 55 0 49 0;
#X connect 56 0 91 1;
#X connect 56 0 92 1;
#X connect 56 0 93 1;
#X connect 56 0 94 1;
#X connect 57 0 96 0;
#X connect 57 1 110 0;
#X connect 58 0 94 0;
#X connect 59 0 60 0;
#X connect 59 0 61 0;
#X connect 60 0 59 1;
#X connect 61 0 57 0;
#X connect 62 0 68 1;
#X connect 63 0 62 0;
#X connect 64 0 67 1;
#X connect 65 0 64 0;
#X connect 66 0 65 0;
#X connect 67 0 72 0;
#X connect 68 0 71 0;
#X connect 69 0 105 0;
#X connect 70 0 68 0;
#X connect 71 0 107 0;
#X connect 73 0 67 0;
#X connect 73 0 90 0;
#X connect 74 0 66 0;
#X connect 75 0 69 0;
#X connect 76 0 63 0;
#X connect 78 0 77 0;
#X connect 80 0 79 0;
#X connect 82 0 81 0;
#X connect 84 0 83 0;
#X connect 85 0 97 0;
#X connect 86 0 80 0;
#X connect 86 1 82 0;
#X connect 86 2 84 0;
#X connect 87 0 86 0;
#X connect 88 0 89 0;
#X connect 89 0 85 0;
#X connect 91 0 44 0;
#X connect 92 0 24 0;
#X connect 93 0 29 0;
#X connect 94 0 59 0;
#X connect 95 0 103 1;
#X connect 96 0 104 1;
#X connect 97 0 108 0;
#X connect 98 0 15 0;
#X connect 99 0 102 1;
#X connect 100 0 101 1;
#X connect 101 0 1 0;
#X connect 102 0 14 0;
#X connect 103 0 32 0;
#X connect 104 0 48 0;
#X connect 105 0 70 0;
#X connect 106 0 73 0;
#X connect 107 0 73 1;
#X connect 108 0 78 0;
#X connect 109 0 103 1;
#X connect 110 0 104 1;
#X restore 776 474 pd accelerator;
#X obj 584 740 dac~ 1 2;
#X obj 147 209 sig~;
#X text 230 28 fiddle to mtof need modification;
#X floatatom 985 130 5 0 0 0 - - -, f 5;
#X floatatom 1070 246 5 0 0 0 - - -, f 5;
#X obj 1045 49 wrap;
#X floatatom 1104 74 5 0 0 0 - - -, f 5;
#X obj 1006 258 delay 1000;
#X floatatom 1045 131 5 0 0 0 - - -, f 5;
#X obj 1005 152 \$1 = \$2;
#X floatatom 1065 166 5 0 0 0 - - -, f 5;
#X obj 1005 63 t b b;
#X obj 778 536 *~ 0.1;
#X obj 776 505 *~ 0.5;
#X obj 175 62 s breathData;
#X floatatom 565 60 5 0 0 0 - - -, f 5;
#X obj 635 277 s #breathperiod;
#X obj 565 6 r #breathperiod;
#X obj 1075 24 s #maxvol;
#X obj 588 507 *~;
#X obj 985 91 > 50;
#X obj 118 93 delwrite~ buff1 500;
#X msg 243 182 0.3;
#X msg 156 270 0.3;
#X obj 1045 91 > 0.7;
#X msg 187 483 open /storage/sdcard0/AWrec.wav \, start;
#X obj 334 538 writesf~ 2;
#X obj 187 449 r #rec;
#X msg 352 323 110;
#X floatatom 1058 445 5 0 0 0 - - -, f 5;
#X obj 1008 363 moses 1000;
#X msg 1005 403 1000;
#X obj 1058 402 moses 4000;
#X msg 1117 445 4000;
#X obj 352 297 moses 2000;
#X floatatom 360 353 5 0 0 0 - - -, f 5;
#X obj 640 345 osc~;
#X obj 519 93 /;
#X floatatom 517 132 5 0 0 0 - - -, f 5;
#X obj 522 29 t b b;
#X obj 637 380 +~ 1;
#X obj 636 409 /~ 2;
#X msg 487 60 500;
#X msg 387 323 240;
#X obj 514 295 / 18;
#X floatatom 513 330 5 0 0 0 - - -, f 5;
#X obj 514 386 noise~;
#X obj 521 445 *~ 0.5;
#X obj 694 564 osc~;
#X obj 700 603 *~ 0.6;
#X obj 708 629 *~;
#X obj 683 365 snapshot~;
#X obj 514 417 bp~ 400 10;
#X floatatom 576 365 5 0 0 0 - - -, f 5;
#X obj 745 268 loadbang;
#X obj 690 411 hsl 128 15 0 1 0 0 empty empty empty -2 -8 0 10 -262144
-1 -1 8871 1;
#X obj 514 356 s freq;
#X obj 751 447 r freq;
#X floatatom 638 529 5 0 0 0 - - -, f 5;
#X obj 700 392 * 100;
#X obj 685 441 == 0;
#X obj 683 333 metro 0.5;
#X msg 687 474 110;
#X obj 570 312 / 200;
#X connect 1 0 0 1;
#X connect 2 0 20 0;
#X connect 2 0 35 0;
#X connect 2 0 63 0;
#X connect 2 0 82 0;
#X connect 3 0 4 0;
#X connect 4 0 0 0;
#X connect 4 0 40 0;
#X connect 5 0 4 1;
#X connect 7 0 41 0;
#X connect 7 0 42 0;
#X connect 8 0 9 0;
#X connect 9 0 24 0;
#X connect 9 0 30 0;
#X connect 9 0 37 0;
#X connect 9 0 39 0;
#X connect 10 0 26 0;
#X connect 11 0 10 0;
#X connect 12 0 13 0;
#X connect 12 0 40 0;
#X connect 12 1 40 0;
#X connect 13 0 14 0;
#X connect 14 0 33 0;
#X connect 15 0 17 0;
#X connect 15 0 49 0;
#X connect 16 0 15 0;
#X connect 16 1 15 1;
#X connect 18 0 32 0;
#X connect 20 0 3 0;
#X connect 22 0 28 0;
#X connect 23 0 26 1;
#X connect 24 0 25 0;
#X connect 24 0 43 0;
#X connect 26 0 16 0;
#X connect 27 0 28 1;
#X connect 28 0 29 0;
#X connect 28 0 11 0;
#X connect 30 0 39 0;
#X connect 30 1 43 0;
#X connect 31 0 19 1;
#X connect 31 0 45 1;
#X connect 32 0 31 0;
#X connect 34 0 56 1;
#X connect 36 0 34 0;
#X connect 36 0 58 0;
#X connect 38 0 19 0;
#X connect 38 0 19 1;
#X connect 38 0 45 0;
#X connect 38 0 45 1;
#X connect 39 0 22 0;
#X connect 41 0 1 0;
#X connect 42 0 5 0;
#X connect 43 0 27 0;
#X connect 44 0 45 0;
#X connect 46 0 44 0;
#X connect 47 0 54 0;
#X connect 48 0 2 0;
#X connect 49 0 50 0;
#X connect 49 1 51 0;
#X connect 50 0 2 0;
#X connect 51 0 48 0;
#X connect 51 1 52 0;
#X connect 52 0 2 0;
#X connect 53 0 47 0;
#X connect 53 1 62 0;
#X connect 55 0 59 0;
#X connect 56 0 57 0;
#X connect 57 0 55 0;
#X connect 58 0 61 0;
#X connect 58 1 34 0;
#X connect 59 0 60 0;
#X connect 60 0 38 1;
#X connect 60 0 69 1;
#X connect 60 0 70 0;
#X connect 61 0 56 0;
#X connect 62 0 54 0;
#X connect 63 0 64 0;
#X connect 64 0 75 0;
#X connect 65 0 71 0;
#X connect 66 0 38 0;
#X connect 67 0 68 0;
#X connect 68 0 69 0;
#X connect 69 0 19 0;
#X connect 70 0 74 0;
#X connect 70 0 78 0;
#X connect 70 0 79 0;
#X connect 71 0 66 0;
#X connect 73 0 80 0;
#X connect 76 0 77 0;
#X connect 76 0 81 0;
#X connect 79 0 81 0;
#X connect 80 0 70 0;
#X connect 81 0 67 0;
#X connect 82 0 72 0;
#X connect 82 0 71 2;
