#N canvas 72 22 1280 643 10;
#X obj 219 400 *~;
#X floatatom 192 344 5 0 0 0 - - -, f 5;
#X floatatom 166 135 5 0 0 0 - - -, f 5;
#X obj 132 240 vd~ buff1;
#X obj 113 333 *~;
#X floatatom 156 300 5 0 0 0 - - -, f 5;
#X text 191 298 no higher than 1!;
#X obj 242 151 loadbang;
#X obj 750 36 r breathData;
#X floatatom 750 62 5 0 0 0 - - -, f 5;
#X obj 768 253 sel 1;
#X obj 768 222 change;
#X obj 160 -41 adc~;
#X obj 176 2 env~;
#X floatatom 175 31 5 0 0 0 - - -, f 5;
#X obj 721 385 timer;
#X obj 721 351 trigger bang bang;
#X floatatom 663 412 5 0 0 0 - - -, f 5;
#N canvas 69 22 1223 643 accelerator 0;
#X obj 108 226 noise~;
#X obj 107 476 *~;
#X obj 139 459 line~;
#X obj 141 406 sel 0 1;
#X obj 137 361 f;
#X obj 171 361 + 1;
#X obj 141 384 mod 2;
#X msg 138 433 1 50;
#X msg 184 433 0 450;
#X obj 452 29 f;
#X obj 486 29 + 1;
#X obj 456 52 mod 8;
#X obj 456 74 sel 0 1 2 3 4 5 6 7;
#X msg 451 -23 bang;
#X obj 235 472 *~;
#X obj 267 455 line~;
#X obj 269 402 sel 0 1;
#X obj 265 357 f;
#X obj 299 357 + 1;
#X obj 269 380 mod 2;
#X msg 266 429 1 50;
#X obj 451 1 metro 200;
#X obj 254 142 sel 0 1;
#X msg 260 52 bang;
#X obj 257 97 f;
#X obj 291 97 + 1;
#X obj 261 120 mod 2;
#X obj 383 142 sel 0 1;
#X msg 389 52 bang;
#X obj 386 97 f;
#X obj 420 97 + 1;
#X obj 390 120 mod 2;
#X obj 362 468 *~;
#X obj 394 451 line~;
#X obj 396 398 sel 0 1;
#X obj 392 353 f;
#X obj 426 353 + 1;
#X obj 396 376 mod 2;
#X msg 393 425 1 50;
#X msg 439 425 0 450;
#X msg 250 175 0;
#X obj 356 -40 loadbang;
#X obj 138 149 sel 0 1;
#X msg 144 59 bang;
#X obj 141 104 f;
#X obj 175 104 + 1;
#X obj 145 127 mod 2;
#X msg 134 182 0;
#X obj 512 471 *~;
#X obj 544 454 line~;
#X obj 546 401 sel 0 1;
#X obj 542 356 f;
#X obj 576 356 + 1;
#X obj 546 379 mod 2;
#X msg 543 428 1 50;
#X msg 589 428 0 450;
#X obj 174 -32 r metroperc;
#X obj 593 144 sel 0 1;
#X msg 599 54 bang;
#X obj 596 99 f;
#X obj 630 99 + 1;
#X obj 600 122 mod 2;
#X obj 762 482 line~;
#X obj 762 458 pack 0 100;
#X obj 866 612 line~;
#X obj 866 588 pack 0 100;
#X obj 866 564 * 0.01;
#X obj 845 638 *~;
#X obj 687 500 *~;
#X obj 687 428 / 100;
#X obj 687 476 +~ 1;
#X obj 687 524 +~ 1.46;
#X obj 845 686 delwrite~ percus 1000;
#X obj 389 565 +~;
#X obj 866 515 r percfeedback;
#X obj 687 365 r percfrequency;
#X obj 763 397 r percsec;
#X obj 764 214 s metroperc;
#X floatatom 764 188 5 0 0 0 - - -, f 5;
#X obj 971 129 s percfrequency;
#X floatatom 971 106 5 0 0 0 - - -, f 5;
#X obj 1072 128 s percsec;
#X floatatom 1072 105 5 0 0 0 - - -, f 5;
#X obj 1144 130 s percfeedback;
#X floatatom 1144 106 5 0 0 0 - - -, f 5;
#X floatatom 759 103 5 0.5 3 0 - - -, f 5;
#X obj 780 6 unpack f f f;
#X obj 780 -22 r #accelerate;
#X obj 757 54 r #pace;
#X obj 759 80 unpack f;
#X obj 369 674 outlet~;
#X obj 144 81 metro 500;
#X obj 260 74 metro 500;
#X obj 389 74 metro 500;
#X obj 599 76 metro 500;
#X msg 379 175 40;
#X msg 589 177 40;
#X obj 761 126 * 50;
#X msg 312 429 0 50;
#X msg 285 175 4808;
#X msg 169 182 8000;
#X obj 107 304 bp~ 0 50;
#X obj 235 304 bp~ 0 50;
#X obj 363 302 bp~ 0 50;
#X obj 541 303 bp~ 0 100;
#X obj 687 452 osc~ 0;
#X obj 389 530 *~ 0.1;
#X obj 687 548 vd~ percus 1000;
#X obj 761 158 + 100;
#X msg 414 175 100;
#X msg 624 177 100;
#X connect 0 0 101 0;
#X connect 0 0 102 0;
#X connect 0 0 103 0;
#X connect 0 0 104 0;
#X connect 1 0 106 0;
#X connect 2 0 1 1;
#X connect 3 0 7 0;
#X connect 3 1 8 0;
#X connect 4 0 5 0;
#X connect 4 0 6 0;
#X connect 5 0 4 1;
#X connect 6 0 3 0;
#X connect 7 0 2 0;
#X connect 8 0 2 0;
#X connect 9 0 10 0;
#X connect 9 0 11 0;
#X connect 10 0 9 1;
#X connect 11 0 12 0;
#X connect 12 0 4 0;
#X connect 12 1 17 0;
#X connect 12 2 35 0;
#X connect 12 3 51 0;
#X connect 13 0 21 0;
#X connect 14 0 106 0;
#X connect 15 0 14 1;
#X connect 16 0 20 0;
#X connect 16 1 98 0;
#X connect 17 0 18 0;
#X connect 17 0 19 0;
#X connect 18 0 17 1;
#X connect 19 0 16 0;
#X connect 20 0 15 0;
#X connect 21 0 9 0;
#X connect 22 0 40 0;
#X connect 22 1 99 0;
#X connect 23 0 92 0;
#X connect 24 0 25 0;
#X connect 24 0 26 0;
#X connect 25 0 24 1;
#X connect 26 0 22 0;
#X connect 27 0 95 0;
#X connect 27 1 109 0;
#X connect 28 0 93 0;
#X connect 29 0 30 0;
#X connect 29 0 31 0;
#X connect 30 0 29 1;
#X connect 31 0 27 0;
#X connect 32 0 106 0;
#X connect 33 0 32 1;
#X connect 34 0 38 0;
#X connect 34 1 39 0;
#X connect 35 0 36 0;
#X connect 35 0 37 0;
#X connect 36 0 35 1;
#X connect 37 0 34 0;
#X connect 38 0 33 0;
#X connect 39 0 33 0;
#X connect 40 0 102 1;
#X connect 41 0 23 0;
#X connect 41 0 28 0;
#X connect 41 0 13 0;
#X connect 41 0 43 0;
#X connect 41 0 58 0;
#X connect 42 0 47 0;
#X connect 42 1 100 0;
#X connect 43 0 91 0;
#X connect 44 0 45 0;
#X connect 44 0 46 0;
#X connect 45 0 44 1;
#X connect 46 0 42 0;
#X connect 47 0 101 1;
#X connect 48 0 106 0;
#X connect 49 0 48 1;
#X connect 50 0 54 0;
#X connect 50 1 55 0;
#X connect 51 0 52 0;
#X connect 51 0 53 0;
#X connect 52 0 51 1;
#X connect 53 0 50 0;
#X connect 54 0 49 0;
#X connect 55 0 49 0;
#X connect 56 0 91 1;
#X connect 56 0 92 1;
#X connect 56 0 93 1;
#X connect 56 0 94 1;
#X connect 57 0 96 0;
#X connect 57 1 110 0;
#X connect 58 0 94 0;
#X connect 59 0 60 0;
#X connect 59 0 61 0;
#X connect 60 0 59 1;
#X connect 61 0 57 0;
#X connect 62 0 68 1;
#X connect 63 0 62 0;
#X connect 64 0 67 1;
#X connect 65 0 64 0;
#X connect 66 0 65 0;
#X connect 67 0 72 0;
#X connect 68 0 71 0;
#X connect 69 0 105 0;
#X connect 70 0 68 0;
#X connect 71 0 107 0;
#X connect 73 0 67 0;
#X connect 73 0 90 0;
#X connect 74 0 66 0;
#X connect 75 0 69 0;
#X connect 76 0 63 0;
#X connect 78 0 77 0;
#X connect 80 0 79 0;
#X connect 82 0 81 0;
#X connect 84 0 83 0;
#X connect 85 0 97 0;
#X connect 86 0 80 0;
#X connect 86 1 82 0;
#X connect 86 2 84 0;
#X connect 87 0 86 0;
#X connect 88 0 89 0;
#X connect 89 0 85 0;
#X connect 91 0 44 0;
#X connect 92 0 24 0;
#X connect 93 0 29 0;
#X connect 94 0 59 0;
#X connect 95 0 103 1;
#X connect 96 0 104 1;
#X connect 97 0 108 0;
#X connect 98 0 15 0;
#X connect 99 0 102 1;
#X connect 100 0 101 1;
#X connect 101 0 1 0;
#X connect 102 0 14 0;
#X connect 103 0 32 0;
#X connect 104 0 48 0;
#X connect 105 0 70 0;
#X connect 106 0 73 0;
#X connect 107 0 73 1;
#X connect 108 0 78 0;
#X connect 109 0 103 1;
#X connect 110 0 104 1;
#X restore 525 393 pd accelerator;
#X obj 389 531 dac~ 1 2;
#X obj 147 209 sig~;
#X obj 681 313 line~;
#X text 230 28 fiddle to mtof need modification;
#X floatatom 748 160 5 0 0 0 - - -, f 5;
#X floatatom 833 276 5 0 0 0 - - -, f 5;
#X obj 808 79 wrap;
#X floatatom 867 104 5 0 0 0 - - -, f 5;
#X obj 769 288 delay 1000;
#X floatatom 808 161 5 0 0 0 - - -, f 5;
#X obj 768 182 \$1 = \$2;
#X floatatom 828 196 5 0 0 0 - - -, f 5;
#X obj 768 93 t b b;
#X floatatom 704 214 5 0 0 0 - - -, f 5;
#X obj 392 0 fiddle~ 1024 1 20 3;
#X floatatom 459 22 5 0 0 0 - - -, f 5;
#X obj 482 452 *~ 0.1;
#X obj 556 426 *~ 0.5;
#X msg 700 277 \$1 1000;
#X obj 679 338 *~ 0.05;
#X obj 808 121 > 0.8;
#X obj 175 62 s breathData;
#X floatatom 954 462 5 0 0 0 - - -, f 5;
#X obj 768 453 s #breathperiod;
#X obj 956 408 r #breathperiod;
#X obj 838 54 s #maxvol;
#X obj 499 301 line;
#X floatatom 500 326 5 0 0 0 - - -, f 5;
#X obj 406 433 *~;
#X obj 412 158 bng 15 250 50 0 empty empty empty 17 7 0 10 -262144
-1 -1;
#X obj 478 84 loadbang;
#X obj 547 302 / 2;
#X obj 346 302 osc~ 55;
#X obj 636 371 *~;
#X obj 712 143 - 23;
#X obj 748 121 > 50;
#X obj 118 93 delwrite~ buff1 500;
#X obj 512 203 delay 1000;
#X msg 530 239 0 1000;
#X obj 452 388 line~;
#X msg 243 182 0.3;
#X msg 156 270 0.3;
#X obj 480 124 metro 4000;
#X msg 408 235 0.9 1000;
#X msg 471 352 \$1 1000;
#X connect 0 0 19 0;
#X connect 0 0 19 1;
#X connect 1 0 0 1;
#X connect 2 0 20 0;
#X connect 3 0 4 0;
#X connect 4 0 0 0;
#X connect 4 0 55 0;
#X connect 5 0 4 1;
#X connect 7 0 59 0;
#X connect 7 0 60 0;
#X connect 8 0 9 0;
#X connect 9 0 25 0;
#X connect 9 0 31 0;
#X connect 9 0 44 0;
#X connect 9 0 53 0;
#X connect 9 0 54 0;
#X connect 10 0 27 0;
#X connect 11 0 10 0;
#X connect 12 0 13 0;
#X connect 12 0 33 0;
#X connect 12 0 55 0;
#X connect 12 1 33 0;
#X connect 12 1 55 0;
#X connect 13 0 14 0;
#X connect 14 0 40 0;
#X connect 15 0 17 0;
#X connect 15 0 42 0;
#X connect 16 0 15 0;
#X connect 16 1 15 1;
#X connect 17 0 2 0;
#X connect 17 0 50 0;
#X connect 17 0 61 1;
#X connect 18 0 36 0;
#X connect 20 0 3 0;
#X connect 21 0 38 0;
#X connect 23 0 29 0;
#X connect 24 0 27 1;
#X connect 25 0 26 0;
#X connect 25 0 39 0;
#X connect 27 0 16 0;
#X connect 28 0 29 1;
#X connect 29 0 30 0;
#X connect 29 0 11 0;
#X connect 31 0 54 0;
#X connect 31 1 39 0;
#X connect 32 0 37 0;
#X connect 33 3 34 0;
#X connect 35 0 19 1;
#X connect 36 0 35 0;
#X connect 37 0 21 0;
#X connect 38 0 52 1;
#X connect 39 0 28 0;
#X connect 43 0 41 0;
#X connect 45 0 46 0;
#X connect 46 0 63 0;
#X connect 47 0 19 0;
#X connect 47 0 19 1;
#X connect 48 0 62 0;
#X connect 48 0 56 0;
#X connect 49 0 61 0;
#X connect 50 0 62 0;
#X connect 50 0 57 0;
#X connect 50 0 56 1;
#X connect 51 0 47 0;
#X connect 53 0 32 0;
#X connect 54 0 23 0;
#X connect 56 0 57 0;
#X connect 57 0 45 0;
#X connect 58 0 47 1;
#X connect 59 0 1 0;
#X connect 60 0 5 0;
#X connect 61 0 48 0;
#X connect 62 0 45 0;
#X connect 63 0 58 0;
